<svg xmlns="http://www.w3.org/2000/svg" xmlns:xlink="http://www.w3.org/1999/xlink" width="87px" height="74px" viewBox="0 0 87 74">
                        <defs>
                            <linearGradient id="PSgrad_0" x1="0%" x2="81.915%" y1="0%" y2="57.358%">
                                <stop offset="0%" stop-color="rgb(0,189,210)" stop-opacity="1" />
                                <stop offset="100%" stop-color="rgb(143,158,242)" stop-opacity="1" />
                            </linearGradient>

                        </defs>
                        <path fill-rule="evenodd" fill="rgb(224, 234, 239)" d="M39.000,19.000 L13.000,51.000 L39.000,62.000 L39.000,19.000 ZM49.000,19.000 L75.000,51.000 L49.000,62.000 L49.000,19.000 ZM1.587,49.909 C9.682,40.237 34.427,10.655 41.909,1.546 C43.691,-0.432 43.781,-0.554 46.172,1.714 C53.621,11.026 78.099,41.623 85.716,51.145 C87.447,53.178 87.468,54.144 85.605,55.089 C77.998,58.547 54.427,69.260 46.575,72.830 C44.042,73.704 44.042,73.677 40.737,72.477 C32.485,68.626 10.845,58.528 2.423,54.598 C-0.177,53.218 -0.401,52.536 1.587,49.909 Z" />
                        <path fill="url(#PSgrad_0)" d="M39.000,19.000 L13.000,51.000 L39.000,62.000 L39.000,19.000 ZM49.000,19.000 L75.000,51.000 L49.000,62.000 L49.000,19.000 ZM1.587,49.909 C9.682,40.237 34.427,10.655 41.909,1.546 C43.691,-0.432 43.781,-0.554 46.172,1.714 C53.621,11.026 78.099,41.623 85.716,51.145 C87.447,53.178 87.468,54.144 85.605,55.089 C77.998,58.547 54.427,69.260 46.575,72.830 C44.042,73.704 44.042,73.677 40.737,72.477 C32.485,68.626 10.845,58.528 2.423,54.598 C-0.177,53.218 -0.401,52.536 1.587,49.909 Z" />
                    </svg>